<?xml version="1.0" encoding="utf-8"?>
<svg version="1.1" xmlns:xlink="http://www.w3.org/1999/xlink" width="23px" height="23px" xmlns="http://www.w3.org/2000/svg">
  <g transform="matrix(1 0 0 1 -1298 -48 )">
    <path d="M 19.1666666666667 6.57142857142857  C 19.1666666666667 7.82924107142857  18.7723524305556 8.99293154761905  17.9837239583333 10.0625  C 18.4529079861111 10.1822916666667  18.8996310763889 10.3448660714286  19.3238932291667 10.5502232142857  C 19.7481553819444 10.7555803571429  20.1923828125 11.0678943452381  20.6565755208333 11.4871651785714  C 21.1207682291667 11.9064360119048  21.517578125 12.4005766369048  21.8470052083333 12.9695870535714  C 22.1764322916667 13.5385974702381  22.4509548611111 14.2744605654762  22.6705729166667 15.1771763392857  C 22.8901909722222 16.0798921130952  23 17.0917038690476  23 18.2126116071429  C 23 19.5303199404762  22.5008680555556 20.6576450892857  21.5026041666667 21.5945870535714  C 20.5043402777778 22.5315290178571  19.3014322916667 23  17.8938802083333 23  L 5.10611979166667 23  C 3.69856770833333 23  2.49565972222222 22.5315290178571  1.49739583333333 21.5945870535714  C 0.499131944444444 20.6576450892857  0 19.5303199404762  0 18.2126116071429  C 0 17.0917038690476  0.109809027777778 16.0798921130952  0.329427083333333 15.1771763392857  C 0.549045138888889 14.2744605654762  0.823567708333333 13.5385974702381  1.15299479166667 12.9695870535714  C 1.482421875 12.4005766369048  1.87923177083333 11.9064360119048  2.34342447916667 11.4871651785714  C 2.8076171875 11.0678943452381  3.25184461805556 10.7555803571429  3.67610677083333 10.5502232142857  C 4.10036892361111 10.3448660714286  4.54709201388889 10.1822916666667  5.01627604166667 10.0625  C 4.22764756944445 8.99293154761905  3.83333333333333 7.82924107142857  3.83333333333333 6.57142857142857  C 3.83333333333333 5.68154761904762  4.03548177083333 4.83231026785714  4.43977864583333 4.02371651785714  C 4.84407552083333 3.21512276785714  5.390625 2.515625  6.07942708333333 1.92522321428571  C 6.76822916666667 1.33482142857143  7.58430989583333 0.866350446428571  8.52766927083333 0.519810267857142  C 9.47102864583333 0.173270089285713  10.4618055555556 0  11.5 0  C 12.5381944444444 0  13.5289713541667 0.173270089285713  14.4723307291667 0.519810267857142  C 15.4156901041667 0.866350446428571  16.2317708333333 1.33482142857143  16.9205729166667 1.92522321428571  C 17.609375 2.515625  18.1559244791667 3.21512276785714  18.5602213541667 4.02371651785714  C 18.9645182291667 4.83231026785714  19.1666666666667 5.68154761904762  19.1666666666667 6.57142857142857  Z M 15.5654296875 3.08677455357143  C 14.4423828125 2.12416294642857  13.0872395833333 1.64285714285714  11.5 1.64285714285714  C 9.91276041666667 1.64285714285714  8.5576171875 2.12416294642857  7.4345703125 3.08677455357143  C 6.3115234375 4.04938616071429  5.75 5.2109375  5.75 6.57142857142857  C 5.75 7.93191964285714  6.3115234375 9.09347098214286  7.4345703125 10.0560825892857  C 8.5576171875 11.0186941964286  9.91276041666667 11.5  11.5 11.5  C 13.0872395833333 11.5  14.4423828125 11.0186941964286  15.5654296875 10.0560825892857  C 16.6884765625 9.09347098214286  17.25 7.93191964285714  17.25 6.57142857142857  C 17.25 5.2109375  16.6884765625 4.04938616071429  15.5654296875 3.08677455357143  Z M 5.10611979166667 21  L 17.8938802083333 21  C 18.7723524305556 21.3571428571429  19.5235460069444 21.0512462797619  20.1474609375 20.439453125  C 20.7713758680556 19.8276599702381  21.0833333333333 19.0853794642857  21.0833333333333 18.2126116071429  C 21.0833333333333 16.1675967261905  20.6915147569444 14.5546875  19.9078776041667 13.3738839285714  C 19.1242404513889 12.1930803571429  17.9986979166667 11.5727306547619  16.53125 11.5128348214286  C 15.0837673611111 12.5995163690476  13.4066840277778 13.1428571428571  11.5 13.1428571428571  C 9.59331597222222 13.1428571428571  7.91623263888889 12.5995163690476  6.46875 11.5128348214286  C 5.00130208333333 11.5727306547619  3.87575954861111 12.1930803571429  3.09212239583333 13.3738839285714  C 2.30848524305556 14.5546875  1.91666666666667 16.1675967261905  1.91666666666667 18.2126116071429  C 1.91666666666667 19.0853794642857  2.22862413194444 19.8276599702381  2.8525390625 20.439453125  C 3.47645399305556 21.0512462797619  4.22764756944445 21.3571428571429  5.10611979166667 21  Z " fill-rule="nonzero" fill="#ffffff" stroke="none" transform="matrix(1 0 0 1 1298 48 )" />
  </g>
</svg>