<?xml version="1.0" encoding="utf-8"?>
<svg version="1.1" xmlns:xlink="http://www.w3.org/1999/xlink" width="33px" height="23px" xmlns="http://www.w3.org/2000/svg">
  <g transform="matrix(1 0 0 1 -1225 -50 )">
    <path d="M 11.9387019230769 19.4389204545455  C 12.4411057692308 19.8527462121212  12.6923076923077 20.342803030303  12.6923076923077 20.9090909090909  C 12.6923076923077 21.4753787878788  12.4411057692308 21.9654356060606  11.9387019230769 22.3792613636364  C 11.4362980769231 22.7930871212121  10.8413461538462 23  10.1538461538462 23  C 9.46634615384616 23  8.87139423076923 22.7930871212121  8.36899038461539 22.3792613636364  C 7.86658653846154 21.9654356060606  7.61538461538462 21.4753787878788  7.61538461538462 20.9090909090909  C 7.61538461538462 20.342803030303  7.86658653846154 19.8527462121212  8.36899038461539 19.4389204545455  C 8.87139423076923 19.0250946969697  9.46634615384616 18.8181818181818  10.1538461538462 18.8181818181818  C 10.8413461538462 18.8181818181818  11.4362980769231 19.0250946969697  11.9387019230769 19.4389204545455  Z M 29.7079326923077 19.4389204545455  C 30.2103365384615 19.8527462121212  30.4615384615385 20.342803030303  30.4615384615385 20.9090909090909  C 30.4615384615385 21.4753787878788  30.2103365384615 21.9654356060606  29.7079326923077 22.3792613636364  C 29.2055288461538 22.7930871212121  28.6105769230769 23  27.9230769230769 23  C 27.2355769230769 23  26.640625 22.7930871212121  26.1382211538462 22.3792613636364  C 25.6358173076923 21.9654356060606  25.3846153846154 21.4753787878788  25.3846153846154 20.9090909090909  C 25.3846153846154 20.342803030303  25.6358173076923 19.8527462121212  26.1382211538462 19.4389204545455  C 26.640625 19.0250946969697  27.2355769230769 18.8181818181818  27.9230769230769 18.8181818181818  C 28.6105769230769 18.8181818181818  29.2055288461538 19.0250946969697  29.7079326923077 19.4389204545455  Z M 32.6231971153846 2.40127840909091  C 32.8743990384615 2.60819128787879  33 2.85321969696969  33 3.13636363636364  L 33 11.5  C 33 11.7613636363636  32.8909254807692 11.9927793560606  32.6727764423077 12.1942471590909  C 32.4546274038462 12.3957149621212  32.1868990384615 12.5127840909091  31.8695913461538 12.5454545454545  L 11.1652644230769 14.5383522727273  C 11.3371394230769 15.1917613636364  11.4230769230769 15.5729166666667  11.4230769230769 15.6818181818182  C 11.4230769230769 15.8560606060606  11.2644230769231 16.2045454545455  10.9471153846154 16.7272727272727  L 29.1923076923077 16.7272727272727  C 29.5360576923077 16.7272727272727  29.8335336538462 16.8307291666667  30.0847355769231 17.0376420454545  C 30.3359375 17.2445549242424  30.4615384615385 17.4895833333333  30.4615384615385 17.7727272727273  C 30.4615384615385 18.0558712121212  30.3359375 18.3008996212121  30.0847355769231 18.5078125  C 29.8335336538462 18.7147253787879  29.5360576923077 18.8181818181818  29.1923076923077 18.8181818181818  L 8.88461538461539 18.8181818181818  C 8.54086538461539 18.8181818181818  8.24338942307692 18.7147253787879  7.9921875 18.5078125  C 7.74098557692308 18.3008996212121  7.61538461538462 18.0558712121212  7.61538461538462 17.7727272727273  C 7.61538461538462 17.6529356060606  7.66826923076923 17.481415719697  7.77403846153846 17.2581676136364  C 7.87980769230769 17.0349195075758  7.98557692307692 16.838896780303  8.09134615384615 16.6700994318182  C 8.19711538461539 16.5013020833333  8.33924278846154 16.2834990530303  8.51772836538462 16.0166903409091  C 8.69621394230769 15.7498816287879  8.79867788461539 15.5892518939394  8.82512019230769 15.5348011363636  L 5.31490384615385 2.09090909090909  L 1.26923076923077 2.09090909090909  C 0.925480769230769 2.09090909090909  0.628004807692308 1.98745265151515  0.376802884615385 1.78053977272727  C 0.125600961538462 1.57362689393939  0 1.32859848484848  0 1.04545454545454  C 0 0.762310606060605  0.125600961538462 0.517282196969694  0.376802884615385 0.310369318181819  C 0.628004807692308 0.103456439393937  0.925480769230769 0  1.26923076923077 0  L 6.34615384615385 0  C 6.55769230769231 0  6.74609375 0.0353929924242409  6.91135817307692 0.106178977272728  C 7.07662259615385 0.176964962121212  7.20552884615385 0.261363636363636  7.29807692307692 0.359375  C 7.390625 0.457386363636364  7.4765625 0.590790719696966  7.55588942307692 0.759588068181819  C 7.63521634615385 0.928385416666665  7.68810096153846 1.06995738636364  7.71454326923077 1.18430397727273  C 7.74098557692308 1.29865056818182  7.77734375 1.4592803030303  7.82361778846154 1.66619318181818  C 7.86989182692308 1.87310606060606  7.89963942307692 2.01467803030303  7.91286057692308 2  L 31.7307692307692 2  C 32.0745192307692 2.09090909090909  32.3719951923077 2.19436553030303  32.6231971153846 2.40127840909091  Z " fill-rule="nonzero" fill="#ffffff" stroke="none" transform="matrix(1 0 0 1 1225 50 )" />
  </g>
</svg>