<?xml version="1.0" encoding="utf-8"?>
<svg version="1.1" xmlns:xlink="http://www.w3.org/1999/xlink" width="214px" height="196px" xmlns="http://www.w3.org/2000/svg">
  <g transform="matrix(1 0 0 1 -52 -1745 )">
    <path d="M 52 1745  L 266 1745  L 266 1941  L 52 1941  L 52 1745  " fill-rule="nonzero" fill="#cccccc" stroke="none" />
    <path d="M 66 1759  L 252 1759  L 252 1927  L 66 1927  L 66 1759  " fill-rule="nonzero" fill="#ffffff" stroke="none" />
    <path d="M 177.98 1803.8  C 169.748 1803.8  163.28 1797.332  163.28 1789.1  C 163.28 1780.868  169.748 1774.4  177.98 1774.4  C 186.212 1774.4  192.68 1780.868  192.68 1789.1  C 192.68 1797.332  186.212 1803.8  177.98 1803.8  " fill-rule="nonzero" fill="#cccccc" stroke="none" />
    <path d="M 71 1922  L 71 1835.1  L 115 1795.6  L 176.6 1835.1738317757  L 211.8 1819.3  L 247 1835.1738317757  L 247 1922  L 71 1922  " fill-rule="nonzero" fill="#169bd5" stroke="none" />
  </g>
</svg>