<?xml version="1.0" encoding="utf-8"?>
<svg version="1.1" xmlns:xlink="http://www.w3.org/1999/xlink" width="28px" height="34px" xmlns="http://www.w3.org/2000/svg">
  <g transform="matrix(1 0 0 1 -433 -673 )">
    <path d="M 27.5189003436426 2.0440881763527  C 27.8396334478809 2.27120908483634  28 2.53239812959251  28 2.82765531062124  C 28 3.12291249164997  27.8396334478809 3.38410153640614  27.5189003436426 3.61122244488978  L 8.61168384879725 17  L 27.5189003436426 30.3887775551102  C 27.8396334478809 30.6158984635939  28 30.87708750835  28 31.1723446893788  C 28 31.4676018704075  27.8396334478809 31.7287909151637  27.5189003436426 31.9559118236473  L 25.1134020618557 33.6593186372746  C 24.7926689576174 33.8864395457582  24.4238258877434 34  24.0068728522337 34  C 23.5899198167239 34  23.2210767468499 33.8864395457582  22.9003436426117 33.6593186372746  L 0.481099656357388 17.7835671342685  C 0.16036655211913 17.5564462257849  0 17.2952571810287  0 17  C 0 16.7047428189713  0.16036655211913 16.4435537742151  0.481099656357388 16.2164328657315  L 22.9003436426117 0.340681362725451  C 23.2210767468499 0.113560454241816  23.5899198167239 0  24.0068728522337 0  C 24.4238258877434 0  24.7926689576174 0.113560454241816  25.1134020618557 0.340681362725451  L 27.5189003436426 2.0440881763527  Z " fill-rule="nonzero" fill="#8c8c8c" stroke="none" transform="matrix(1 0 0 1 433 673 )" />
  </g>
</svg>