<?xml version="1.0" encoding="utf-8"?>
<svg version="1.1" xmlns:xlink="http://www.w3.org/1999/xlink" width="26px" height="50px" xmlns="http://www.w3.org/2000/svg">
  <g transform="matrix(1 0 0 1 -948 -268 )">
    <path d="M 25.553264604811 23.8476953907816  C 25.8510882016037 24.1816967267869  26 24.5657982631931  26 25  C 26 25.4342017368069  25.8510882016037 25.8183032732131  25.553264604811 26.1523046092184  L 4.73539518900344 49.498997995992  C 4.43757159221077 49.8329993319973  4.0950744558992 50  3.70790378006873 50  C 3.32073310423826 50  2.97823596792669 49.8329993319973  2.68041237113402 49.498997995992  L 0.446735395189003 46.9939879759519  C 0.148911798396335 46.6599866399466  0 46.2758851035404  0 45.8416833667335  C 0 45.4074816299265  0.148911798396335 45.0233800935204  0.446735395189003 44.689378757515  L 18.0034364261168 25  L 0.446735395189003 5.31062124248497  C 0.148911798396335 4.97661990647962  0 4.59251837007348  0 4.15831663326653  C 0 3.72411489645958  0.148911798396335 3.34001336005343  0.446735395189003 3.00601202404809  L 2.68041237113402 0.501002004008017  C 2.97823596792669 0.16700066800267  3.32073310423826 0  3.70790378006873 0  C 4.0950744558992 0  4.43757159221077 0.16700066800267  4.73539518900344 0.501002004008017  L 25.553264604811 23.8476953907816  Z " fill-rule="nonzero" fill="#ffffff" stroke="none" transform="matrix(1 0 0 1 948 268 )" />
  </g>
</svg>