<?xml version="1.0" encoding="utf-8"?>
<svg version="1.1" xmlns:xlink="http://www.w3.org/1999/xlink" width="26px" height="50px" xmlns="http://www.w3.org/2000/svg">
  <g transform="matrix(1 0 0 1 -58 -268 )">
    <path d="M 25.553264604811 3.00601202404809  C 25.8510882016037 3.34001336005343  26 3.72411489645958  26 4.15831663326653  C 26 4.59251837007348  25.8510882016037 4.97661990647962  25.553264604811 5.31062124248497  L 7.99656357388316 25  L 25.553264604811 44.689378757515  C 25.8510882016037 45.0233800935204  26 45.4074816299265  26 45.8416833667335  C 26 46.2758851035404  25.8510882016037 46.6599866399466  25.553264604811 46.9939879759519  L 23.319587628866 49.498997995992  C 23.0217640320733 49.8329993319973  22.6792668957617 50  22.2920962199313 50  C 21.9049255441008 50  21.5624284077892 49.8329993319973  21.2646048109966 49.498997995992  L 0.446735395189003 26.1523046092184  C 0.148911798396335 25.8183032732131  0 25.4342017368069  0 25  C 0 24.5657982631931  0.148911798396335 24.1816967267869  0.446735395189003 23.8476953907816  L 21.2646048109966 0.501002004008017  C 21.5624284077892 0.16700066800267  21.9049255441008 0  22.2920962199313 0  C 22.6792668957617 0  23.0217640320733 0.16700066800267  23.319587628866 0.501002004008017  L 25.553264604811 3.00601202404809  Z " fill-rule="nonzero" fill="#ffffff" stroke="none" transform="matrix(1 0 0 1 58 268 )" />
  </g>
</svg>