<?xml version="1.0" encoding="utf-8"?>
<svg version="1.1" xmlns:xlink="http://www.w3.org/1999/xlink" width="28px" height="34px" xmlns="http://www.w3.org/2000/svg">
  <g transform="matrix(1 0 0 1 -1269 -673 )">
    <path d="M 27.5189003436426 16.2164328657315  C 27.8396334478809 16.4435537742151  28 16.7047428189713  28 17  C 28 17.2952571810287  27.8396334478809 17.5564462257849  27.5189003436426 17.7835671342685  L 5.09965635738832 33.6593186372746  C 4.77892325315006 33.8864395457582  4.41008018327606 34  3.99312714776632 34  C 3.57617411225659 34  3.20733104238259 33.8864395457582  2.88659793814433 33.6593186372746  L 0.481099656357388 31.9559118236473  C 0.16036655211913 31.7287909151637  0 31.4676018704075  0 31.1723446893788  C 0 30.87708750835  0.16036655211913 30.6158984635939  0.481099656357388 30.3887775551102  L 19.3883161512027 17  L 0.481099656357388 3.61122244488978  C 0.16036655211913 3.38410153640614  0 3.12291249164997  0 2.82765531062124  C 0 2.53239812959251  0.16036655211913 2.27120908483634  0.481099656357388 2.0440881763527  L 2.88659793814433 0.340681362725451  C 3.20733104238259 0.113560454241816  3.57617411225659 0  3.99312714776632 0  C 4.41008018327606 0  4.77892325315006 0.113560454241816  5.09965635738832 0.340681362725451  L 27.5189003436426 16.2164328657315  Z " fill-rule="nonzero" fill="#8c8c8c" stroke="none" transform="matrix(1 0 0 1 1269 673 )" />
  </g>
</svg>