<?xml version="1.0" encoding="utf-8"?>
<svg version="1.1" xmlns:xlink="http://www.w3.org/1999/xlink" width="15px" height="28px" xmlns="http://www.w3.org/2000/svg">
  <g transform="matrix(1 0 0 1 -70 -497 )">
    <path d="M 14.2316258351893 7.11778846153846  C 14.4432071269488 7.11778846153846  14.6325167037862 7.20192307692308  14.7995545657016 7.37019230769231  C 15 7.59455128205128  15.0389755011136 7.84134615384615  14.9164810690423 8.11057692307692  L 5.89643652561247 27.5793269230769  C 5.75167037861915 27.8597756410256  5.51781737193764 28  5.19487750556793 28  C 5.15033407572383 28  5.07238307349666 27.9887820512821  4.96102449888641 27.9663461538462  C 4.771714922049 27.9102564102564  4.62973273942094 27.8036858974359  4.53507795100223 27.6466346153846  C 4.44042316258352 27.4895833333333  4.41536748329621 27.3213141025641  4.45991091314031 27.1418269230769  L 7.75055679287305 13.5456730769231  L 0.968819599109132 15.2451923076923  C 0.924276169265033 15.2564102564103  0.857461024498887 15.2620192307692  0.76837416481069 15.2620192307692  C 0.567928730512249 15.2620192307692  0.39532293986637 15.2003205128205  0.250556792873051 15.0769230769231  C 0.0501113585746102 14.9086538461538  -0.022271714922049 14.6899038461538  0.0334075723830735 14.4206730769231  L 3.39086859688196 0.53846153846154  C 3.43541202672606 0.381410256410255  3.52449888641425 0.252403846153848  3.65812917594655 0.151442307692308  C 3.79175946547884 0.0504807692307683  3.94766146993318 0  4.12583518930958 0  L 9.60467706013363 0  C 9.8162583518931 0  9.99443207126949 0.0701121794871757  10.1391982182628 0.21033653846154  C 10.2839643652561 0.350560897435897  10.3563474387528 0.516025641025639  10.3563474387528 0.706730769230768  C 10.3563474387528 0.796474358974358  10.3285077951002 0.897435897435897  10.2728285077951 1.00961538461538  L 7.41648106904232 8.80048076923077  L 14.0311804008909 7.15144230769231  C 14.1202672605791 7.12900641025641  14.1870824053452 7.11778846153846  14.2316258351893 7.11778846153846  Z " fill-rule="nonzero" fill="#ffff80" stroke="none" transform="matrix(1 0 0 1 70 497 )" />
  </g>
</svg>