<?xml version="1.0" encoding="utf-8"?>
<svg version="1.1" xmlns:xlink="http://www.w3.org/1999/xlink" width="41px" height="31px" xmlns="http://www.w3.org/2000/svg">
  <g transform="matrix(1 0 0 1 -58 -925 )">
    <path d="M 3 28  L 41 28  L 41 31  L 0 31  L 0 0  L 3 0  L 3 28  Z M 38.25732421875 2.76497395833333  C 38.37744140625 2.88606770833333  38.4375 3.04079861111111  38.4375 3.22916666666667  L 38.4375 12.0084635416667  C 38.4375 12.291015625  38.307373046875 12.4894748263889  38.047119140625 12.6038411458333  C 37.786865234375 12.7182074652778  37.5499674479167 12.6677517361111  37.33642578125 12.4524739583333  L 34.9140625 10.0104166666667  L 22.24169921875 22.7858072916667  C 22.1082356770833 22.9203559027778  21.9547526041667 22.9876302083333  21.78125 22.9876302083333  C 21.6077473958333 22.9876302083333  21.4542643229167 22.9203559027778  21.32080078125 22.7858072916667  L 16.65625 18.0833333333333  L 8.328125 26.4791666666667  L 4.484375 22.6041666666667  L 16.19580078125 10.7975260416667  C 16.3292643229167 10.6629774305556  16.4827473958333 10.595703125  16.65625 10.595703125  C 16.8297526041667 10.595703125  16.9832356770833 10.6629774305556  17.11669921875 10.7975260416667  L 21.78125 15.5  L 31.0703125 6.13541666666667  L 28.64794921875 3.693359375  C 28.4344075520833 3.47808159722222  28.3843587239583 3.2392578125  28.497802734375 2.97688802083333  C 28.6112467447917 2.71451822916667  28.80810546875 2.58333333333333  29.08837890625 2.58333333333333  L 37.796875 2.58333333333333  C 37.9837239583333 2.58333333333333  38.13720703125 2.64388020833333  38.25732421875 2.76497395833333  Z " fill-rule="nonzero" fill="#000000" stroke="none" transform="matrix(1 0 0 1 58 925 )" />
  </g>
</svg>