<?xml version="1.0" encoding="utf-8"?>
<svg version="1.1" xmlns:xlink="http://www.w3.org/1999/xlink" width="30px" height="30px" xmlns="http://www.w3.org/2000/svg">
  <g transform="matrix(1 0 0 1 -582 -3689 )">
    <path d="M 5.625 0  L 24.375 0  C 25.9244791666667 0  27.2493489583333 0.550130208333331  28.349609375 1.650390625  C 29.4498697916667 2.75065104166666  30 4.07552083333333  30 5.625  L 30 24.375  C 30 25.9244791666667  29.4498697916667 27.2493489583333  28.349609375 28.349609375  C 27.2493489583333 29.4498697916667  25.9244791666667 30  24.375 30  L 20.703125 30  L 20.703125 18.37890625  L 24.58984375 18.37890625  L 25.17578125 13.84765625  L 20.703125 13.84765625  L 20.703125 10.95703125  C 20.703125 10.2278645833333  20.8561197916667 9.68098958333333  21.162109375 9.31640625  C 21.4680989583333 8.95182291666667  22.0638020833333 8.76953125  22.94921875 8.76953125  L 25.33203125 8.75  L 25.33203125 4.70703125  C 24.51171875 4.58984375  23.3528645833333 4.53125  21.85546875 4.53125  C 20.0846354166667 4.53125  18.6686197916667 5.05208333333333  17.607421875 6.09375  C 16.5462239583333 7.13541666666667  16.015625 8.60677083333333  16.015625 10.5078125  L 16.015625 13.84765625  L 12.109375 13.84765625  L 12.109375 18.37890625  L 16 18.37890625  L 16 30  L 5.625 30  C 4.07552083333333 30  2.75065104166667 29.4498697916667  1.650390625 28.349609375  C 0.550130208333333 27.2493489583333  0 25.9244791666667  0 24.375  L 0 5.625  C 0 4.07552083333333  0.550130208333333 2.75065104166666  1.650390625 1.650390625  C 2.75065104166667 0.550130208333331  4.07552083333333 0  5.625 0  Z " fill-rule="nonzero" fill="#000000" stroke="none" transform="matrix(1 0 0 1 582 3689 )" />
  </g>
</svg>