<?xml version="1.0" encoding="utf-8"?>
<svg version="1.1" xmlns:xlink="http://www.w3.org/1999/xlink" width="30px" height="30px" xmlns="http://www.w3.org/2000/svg">
  <g transform="matrix(1 0 0 1 -637 -3689 )">
    <path d="M 15.927734375 20.44921875  C 17.2493489583333 19.08203125  17.91015625 17.32421875  17.91015625 15.17578125  C 17.91015625 14.8372395833333  17.87109375 14.4205729166667  17.79296875 13.92578125  L 10.72265625 13.92578125  L 10.72265625 16.50390625  L 14.9609375 16.50390625  C 14.921875 16.81640625  14.814453125 17.1419270833333  14.638671875 17.48046875  C 14.462890625 17.8190104166667  14.21875 18.1640625  13.90625 18.515625  C 13.59375 18.8671875  13.1608072916667 19.1569010416667  12.607421875 19.384765625  C 12.0540364583333 19.6126302083333  11.42578125 19.7265625  10.72265625 19.7265625  C 9.43359375 19.7265625  8.33333333333334 19.2643229166667  7.421875 18.33984375  C 6.51041666666667 17.4153645833333  6.0546875 16.3020833333333  6.0546875 15  C 6.0546875 13.6979166666667  6.51041666666667 12.5846354166667  7.421875 11.66015625  C 8.33333333333334 10.7356770833333  9.43359375 10.2734375  10.72265625 10.2734375  C 11.9205729166667 10.2734375  12.9166666666667 10.6575520833333  13.7109375 11.42578125  L 15.7421875 9.453125  C 14.3359375 8.15104166666666  12.6627604166667 7.5  10.72265625 7.5  C 8.63932291666667 7.5  6.86848958333333 8.232421875  5.41015625 9.697265625  C 3.95182291666667 11.162109375  3.22265625 12.9296875  3.22265625 15  C 3.22265625 17.0703125  3.95182291666667 18.837890625  5.41015625 20.302734375  C 6.86848958333333 21.767578125  8.63932291666667 22.5  10.72265625 22.5  C 12.87109375 22.5  14.6061197916667 21.81640625  15.927734375 20.44921875  Z M 24.6484375 18.22265625  L 24.6484375 16.07421875  L 26.77734375 16.07421875  L 26.77734375 13.92578125  L 24.6484375 13.92578125  L 24.6484375 11.77734375  L 22.5 11.77734375  L 22.5 13.92578125  L 20.3515625 13.92578125  L 20.3515625 16.07421875  L 22.5 16.07421875  L 22.5 18.22265625  L 24.6484375 18.22265625  Z M 28.349609375 1.650390625  C 29.4498697916667 2.75065104166666  30 4.07552083333333  30 5.625  L 30 24.375  C 30 25.9244791666667  29.4498697916667 27.2493489583333  28.349609375 28.349609375  C 27.2493489583333 29.4498697916667  25.9244791666667 30  24.375 30  L 5.625 30  C 4.07552083333333 30  2.75065104166667 29.4498697916667  1.650390625 28.349609375  C 0.550130208333333 27.2493489583333  0 25.9244791666667  0 24.375  L 0 5.625  C 0 4.07552083333333  0.550130208333333 2.75065104166666  1.650390625 1.650390625  C 2.75065104166667 0.550130208333331  4.07552083333333 0  5.625 0  L 24.375 0  C 25.9244791666667 0  27.2493489583333 0.550130208333331  28.349609375 1.650390625  Z " fill-rule="nonzero" fill="#000000" stroke="none" transform="matrix(1 0 0 1 637 3689 )" />
  </g>
</svg>