<?xml version="1.0" encoding="utf-8"?>
<svg version="1.1" xmlns:xlink="http://www.w3.org/1999/xlink" width="30px" height="30px" xmlns="http://www.w3.org/2000/svg">
  <g transform="matrix(1 0 0 1 -747 -3689 )">
    <path d="M 22.94921875 11.54296875  C 23.76953125 10.95703125  24.453125 10.2473958333333  25 9.4140625  C 24.2708333333333 9.73958333333333  23.4830729166667 9.9609375  22.63671875 10.078125  C 23.5221354166667 9.55729166666666  24.1276041666667 8.79557291666666  24.453125 7.79296875  C 23.6067708333333 8.28776041666666  22.734375 8.61979166666666  21.8359375 8.7890625  C 21.0416666666667 7.9296875  20.0455729166667 7.5  18.84765625 7.5  C 17.71484375 7.5  16.748046875 7.900390625  15.947265625 8.701171875  C 15.146484375 9.501953125  14.74609375 10.46875  14.74609375 11.6015625  C 14.74609375 11.9791666666667  14.7786458333333 12.2916666666667  14.84375 12.5390625  C 13.1640625 12.4479166666667  11.5885416666667 12.0247395833333  10.1171875 11.26953125  C 8.64583333333333 10.5143229166667  7.39583333333333 9.50520833333333  6.3671875 8.2421875  C 5.98958333333333 8.89322916666667  5.80078125 9.58333333333333  5.80078125 10.3125  C 5.80078125 11.796875  6.39322916666667 12.9361979166667  7.578125 13.73046875  C 6.96614583333333 13.7174479166667  6.31510416666667 13.5481770833333  5.625 13.22265625  L 5.625 13.26171875  C 5.625 14.23828125  5.95052083333333 15.107421875  6.6015625 15.869140625  C 7.25260416666667 16.630859375  8.05338541666667 17.1028645833333  9.00390625 17.28515625  C 8.62630208333334 17.3893229166667  8.29427083333333 17.44140625  8.0078125 17.44140625  C 7.83854166666667 17.44140625  7.58463541666667 17.4153645833333  7.24609375 17.36328125  C 7.51953125 18.18359375  8.00455729166667 18.8606770833333  8.701171875 19.39453125  C 9.39778645833333 19.9283854166667  10.1888020833333 20.2018229166667  11.07421875 20.21484375  C 9.56380208333333 21.38671875  7.86458333333333 21.97265625  5.9765625 21.97265625  C 5.63802083333333 21.97265625  5.3125 21.953125  5 21.9140625  C 6.92708333333333 23.1380208333333  9.0234375 23.75  11.2890625 23.75  C 12.7473958333333 23.75  14.1145833333333 23.5188802083333  15.390625 23.056640625  C 16.6666666666667 22.5944010416667  17.7604166666667 21.9759114583333  18.671875 21.201171875  C 19.5833333333333 20.4264322916667  20.3678385416667 19.5345052083333  21.025390625 18.525390625  C 21.6829427083333 17.5162760416667  22.1712239583333 16.4615885416667  22.490234375 15.361328125  C 22.8092447916667 14.2610677083333  22.96875 13.1640625  22.96875 12.0703125  C 22.96875 11.8359375  22.9622395833333 11.66015625  22.94921875 11.54296875  Z M 28.349609375 1.650390625  C 29.4498697916667 2.75065104166666  30 4.07552083333333  30 5.625  L 30 24.375  C 30 25.9244791666667  29.4498697916667 27.2493489583333  28.349609375 28.349609375  C 27.2493489583333 29.4498697916667  25.9244791666667 30  24.375 30  L 5.625 30  C 4.07552083333333 30  2.75065104166667 29.4498697916667  1.650390625 28.349609375  C 0.550130208333333 27.2493489583333  0 25.9244791666667  0 24.375  L 0 5.625  C 0 4.07552083333333  0.550130208333333 2.75065104166666  1.650390625 1.650390625  C 2.75065104166667 0.550130208333331  4.07552083333333 0  5.625 0  L 24.375 0  C 25.9244791666667 0  27.2493489583333 0.550130208333331  28.349609375 1.650390625  Z " fill-rule="nonzero" fill="#000000" stroke="none" transform="matrix(1 0 0 1 747 3689 )" />
  </g>
</svg>