<?xml version="1.0" encoding="utf-8"?>
<svg version="1.1" xmlns:xlink="http://www.w3.org/1999/xlink" width="30px" height="30px" xmlns="http://www.w3.org/2000/svg">
  <g transform="matrix(1 0 0 1 -802 -3689 )">
    <path d="M 17.3828125 23.90625  C 17.7604166666667 23.90625  17.94921875 23.5872395833333  17.94921875 22.94921875  L 17.94921875 19.8828125  C 17.94921875 19.2317708333333  17.7604166666667 18.90625  17.3828125 18.90625  C 17.1614583333333 18.90625  16.9466145833333 19.0104166666667  16.73828125 19.21875  L 16.73828125 23.59375  C 16.9466145833333 23.8020833333333  17.1614583333333 23.90625  17.3828125 23.90625  Z M 21.54296875 19.90234375  L 21.54296875 20.56640625  L 22.83203125 20.56640625  L 22.83203125 19.90234375  C 22.83203125 19.23828125  22.6171875 18.90625  22.1875 18.90625  C 21.7578125 18.90625  21.54296875 19.23828125  21.54296875 19.90234375  Z M 5.859375 15.37109375  L 10.390625 15.37109375  L 10.390625 16.73828125  L 8.828125 16.73828125  L 8.828125 25  L 7.3828125 25  L 7.3828125 16.73828125  L 5.859375 16.73828125  L 5.859375 15.37109375  Z M 13.0078125 17.83203125  L 14.31640625 17.83203125  L 14.31640625 25  L 13.0078125 25  L 13.0078125 24.21875  C 12.5 24.8046875  12.0052083333333 25.09765625  11.5234375 25.09765625  C 11.09375 25.09765625  10.8203125 24.9153645833333  10.703125 24.55078125  C 10.625 24.3294270833333  10.5859375 23.9778645833333  10.5859375 23.49609375  L 10.5859375 17.83203125  L 11.875 17.83203125  L 11.875 23.10546875  C 11.875 23.41796875  11.8815104166667 23.5872395833333  11.89453125 23.61328125  C 11.9075520833333 23.80859375  12.0052083333333 23.90625  12.1875 23.90625  C 12.4479166666667 23.90625  12.7213541666667 23.7044270833333  13.0078125 23.30078125  L 13.0078125 17.83203125  Z M 19.1015625 18.5546875  C 19.1927083333333 18.828125  19.23828125 19.3098958333333  19.23828125 20  L 19.23828125 22.8515625  C 19.23828125 23.5286458333333  19.1927083333333 24.00390625  19.1015625 24.27734375  C 18.9453125 24.82421875  18.6002604166667 25.09765625  18.06640625 25.09765625  C 17.6106770833333 25.09765625  17.16796875 24.8307291666667  16.73828125 24.296875  L 16.73828125 25  L 15.4296875 25  L 15.4296875 15.37109375  L 16.73828125 15.37109375  L 16.73828125 18.515625  C 17.1549479166667 17.9947916666667  17.59765625 17.734375  18.06640625 17.734375  C 18.6002604166667 17.734375  18.9453125 18.0078125  19.1015625 18.5546875  Z M 22.8125 22.51953125  L 24.140625 22.51953125  L 24.140625 22.6953125  C 24.140625 23.0729166666667  24.1276041666667 23.3528645833333  24.1015625 23.53515625  C 24.0625 23.8216145833333  23.96484375 24.08203125  23.80859375 24.31640625  C 23.45703125 24.8372395833333  22.9361979166667 25.09765625  22.24609375 25.09765625  C 21.5690104166667 25.09765625  21.0416666666667 24.8502604166667  20.6640625 24.35546875  C 20.390625 24.00390625  20.25390625 23.4440104166667  20.25390625 22.67578125  L 20.25390625 20.15625  C 20.25390625 19.3880208333333  20.3841145833333 18.828125  20.64453125 18.4765625  C 21.0221354166667 17.9817708333333  21.54296875 17.734375  22.20703125 17.734375  C 22.87109375 17.734375  23.37890625 17.9817708333333  23.73046875 18.4765625  C 24.00390625 18.8541666666667  24.140625 19.4140625  24.140625 20.15625  L 24.140625 21.640625  L 21.54296875 21.640625  L 21.54296875 22.91015625  C 21.54296875 23.57421875  21.7643229166667 23.90625  22.20703125 23.90625  C 22.51953125 23.90625  22.71484375 23.7369791666667  22.79296875 23.3984375  C 22.79296875 23.3854166666667  22.7962239583333 23.33984375  22.802734375 23.26171875  C 22.8092447916667 23.18359375  22.8125 23.076171875  22.8125 22.939453125  L 22.8125 22.51953125  Z M 14.70703125 5.41015625  C 15.1236979166667 5.41015625  15.33203125 5.74869791666667  15.33203125 6.42578125  L 15.33203125 9.47265625  C 15.33203125 10.13671875  15.1236979166667 10.46875  14.70703125 10.46875  C 14.2903645833333 10.46875  14.08203125 10.13671875  14.08203125 9.47265625  L 14.08203125 6.42578125  C 14.08203125 5.74869791666667  14.2903645833333 5.41015625  14.70703125 5.41015625  Z M 25.3515625 25.4296875  C 25.6119791666667 24.3359375  25.7421875 22.6432291666667  25.7421875 20.3515625  C 25.7421875 18.046875  25.6184895833333 16.3541666666667  25.37109375 15.2734375  C 25.2408854166667 14.7005208333333  24.9609375 14.2220052083333  24.53125 13.837890625  C 24.1015625 13.4537760416667  23.6067708333333 13.2291666666667  23.046875 13.1640625  C 21.2760416666667 12.96875  18.59375 12.87109375  15 12.87109375  C 11.4192708333333 12.87109375  8.74348958333333 12.96875  6.97265625 13.1640625  C 6.39973958333333 13.2291666666667  5.90169270833333 13.4537760416667  5.478515625 13.837890625  C 5.05533854166667 14.2220052083333  4.77864583333333 14.7005208333333  4.6484375 15.2734375  C 4.38802083333333 16.40625  4.2578125 18.0989583333333  4.2578125 20.3515625  C 4.2578125 22.6432291666667  4.38802083333333 24.3359375  4.6484375 25.4296875  C 4.77864583333333 25.9895833333333  5.05533854166667 26.46484375  5.478515625 26.85546875  C 5.90169270833333 27.24609375  6.39322916666667 27.4739583333333  6.953125 27.5390625  C 8.73697916666667 27.734375  11.4192708333333 27.83203125  15 27.83203125  C 18.5807291666667 27.83203125  21.2630208333333 27.734375  23.046875 27.5390625  C 23.6067708333333 27.4739583333333  24.0983072916667 27.24609375  24.521484375 26.85546875  C 24.9446614583333 26.46484375  25.2213541666667 25.9895833333333  25.3515625 25.4296875  Z M 10.99609375 11.5625  L 10.99609375 7.63671875  L 12.75390625 1.85546875  L 11.2890625 1.85546875  L 10.29296875 5.6640625  L 9.2578125 1.85546875  L 7.734375 1.85546875  C 7.82552083333333 2.15494791666667  7.97526041666667 2.60416666666666  8.18359375 3.203125  L 8.65234375 4.55078125  C 9.10807291666667 5.89192708333333  9.40755208333333 6.92057291666667  9.55078125 7.63671875  L 9.55078125 11.5625  L 10.99609375 11.5625  Z M 16.23046875 10.91796875  C 16.50390625 10.56640625  16.640625 10  16.640625 9.21875  L 16.640625 6.6796875  C 16.640625 5.92447916666667  16.50390625 5.35807291666666  16.23046875 4.98046875  C 15.8528645833333 4.48567708333333  15.3450520833333 4.23828125  14.70703125 4.23828125  C 14.04296875 4.23828125  13.53515625 4.48567708333333  13.18359375 4.98046875  C 12.91015625 5.35807291666666  12.7734375 5.92447916666667  12.7734375 6.6796875  L 12.7734375 9.21875  C 12.7734375 9.97395833333333  12.91015625 10.5403645833333  13.18359375 10.91796875  C 13.53515625 11.4127604166667  14.04296875 11.66015625  14.70703125 11.66015625  C 15.3450520833333 11.66015625  15.8528645833333 11.4127604166667  16.23046875 10.91796875  Z M 20.17578125 10.78125  L 20.17578125 11.5625  L 21.484375 11.5625  L 21.484375 4.3359375  L 20.17578125 4.3359375  L 20.17578125 9.86328125  C 19.8893229166667 10.2669270833333  19.6158854166667 10.46875  19.35546875 10.46875  C 19.16015625 10.46875  19.0559895833333 10.3645833333333  19.04296875 10.15625  C 19.0299479166667 10.1302083333333  19.0234375 9.9609375  19.0234375 9.6484375  L 19.0234375 4.3359375  L 17.71484375 4.3359375  L 17.71484375 10.05859375  C 17.71484375 10.5403645833333  17.75390625 10.8984375  17.83203125 11.1328125  C 17.9752604166667 11.484375  18.2552083333333 11.66015625  18.671875 11.66015625  C 19.140625 11.66015625  19.6419270833333 11.3671875  20.17578125 10.78125  Z M 28.349609375 1.650390625  C 29.4498697916667 2.75065104166666  30 4.07552083333333  30 5.625  L 30 24.375  C 30 25.9244791666667  29.4498697916667 27.2493489583333  28.349609375 28.349609375  C 27.2493489583333 29.4498697916667  25.9244791666667 30  24.375 30  L 5.625 30  C 4.07552083333333 30  2.75065104166667 29.4498697916667  1.650390625 28.349609375  C 0.550130208333333 27.2493489583333  0 25.9244791666667  0 24.375  L 0 5.625  C 0 4.07552083333333  0.550130208333333 2.75065104166666  1.650390625 1.650390625  C 2.75065104166667 0.550130208333331  4.07552083333333 0  5.625 0  L 24.375 0  C 25.9244791666667 0  27.2493489583333 0.550130208333331  28.349609375 1.650390625  Z " fill-rule="nonzero" fill="#000000" stroke="none" transform="matrix(1 0 0 1 802 3689 )" />
  </g>
</svg>